# xmcd
#
# Track frame offsets:
#	150
#	20392
#	40300
#	60667
#	81482
#	102152
#	122567
#	142757
#
# Disc length: 2158 seconds
#
# Revision: 0
# Processed by: cddbd v1.4PL0 Copyright (c) Steve Scherf et al.
# Submitted via: EasyCDDAExtractor 5.0.4.1
#
DISCID=61086c08
DTITLE=Orquesta Granada - Explotando El Mambo
DYEAR=1900
DGENRE=blues
TTITLE0=El Lobo
TTITLE1=El Toro Gacho
TTITLE2=Capricho
TTITLE3=Son Mentiras
TTITLE4=El Tic Nervioso
TTITLE5=Se Rajo Ese Tipo
TTITLE6=La Tembladera
TTITLE7=Traicionera
EXTD=
EXTT0=
EXTT1=
EXTT2=
EXTT3=
EXTT4=
EXTT5=
EXTT6=
EXTT7=
PLAYORDER=
